<?xml version="1.0" standalone="no"?>
<!DOCTYPE svg PUBLIC "-//W3C//DTD SVG 20010904//EN"
 "http://www.w3.org/TR/2001/REC-SVG-20010904/DTD/svg10.dtd">
<svg version="1.0" xmlns="http://www.w3.org/2000/svg"
 width="480.000000pt" height="480.000000pt" viewBox="0 0 480.000000 480.000000"
 preserveAspectRatio="xMidYMid meet">
<metadata>
Created by potrace 1.15, written by Peter Selinger 2001-2017
</metadata>
<g transform="translate(0.000000,480.000000) scale(0.100000,-0.100000)"
fill="#000000" stroke="none">
<path d="M0 2400 l0 -2400 2400 0 2400 0 0 2400 0 2400 -2400 0 -2400 0 0
-2400z m2540 1654 c176 -41 341 -173 418 -335 51 -108 66 -172 66 -284 0 -102
-15 -174 -54 -260 -48 -105 -34 -99 -195 -79 -188 24 -586 24 -767 1 -69 -9
-131 -17 -137 -17 -17 0 -61 85 -89 168 -29 90 -35 241 -13 332 55 228 246
420 471 475 75 18 221 18 300 -1z"/>
<path d="M2289 3897 c-88 -33 -155 -94 -192 -176 -30 -67 -29 -189 2 -252 32
-68 81 -120 142 -154 49 -27 62 -30 149 -30 80 0 102 4 138 23 66 35 119 88
149 150 23 48 28 70 28 137 0 67 -5 89 -28 137 -31 62 -84 116 -149 149 -54
28 -184 36 -239 16z"/>
</g>
</svg>
